<?xml version="1.0" standalone="no"?>
<!DOCTYPE svg PUBLIC "-//W3C//DTD SVG 20010904//EN"
 "http://www.w3.org/TR/2001/REC-SVG-20010904/DTD/svg10.dtd">
<svg version="1.0" xmlns="http://www.w3.org/2000/svg"
 width="1598.000000pt" height="1598.000000pt" viewBox="0 0 1598.000000 1598.000000"
 preserveAspectRatio="xMidYMid meet">
<metadata>
Created by potrace 1.14, written by Peter Selinger 2001-2017
</metadata>
<g transform="translate(0.000000,1598.000000) scale(0.100000,-0.100000)"
fill="#000000" stroke="none">
<path d="M7655 15974 c-33 -2 -139 -8 -235 -14 -299 -18 -693 -73 -1060 -146
-832 -167 -1693 -500 -2455 -952 -260 -154 -680 -446 -915 -636 -390 -315
-810 -728 -1129 -1111 -906 -1090 -1505 -2398 -1731 -3780 -80 -486 -104 -784
-104 -1300 -1 -406 8 -577 44 -902 174 -1556 792 -3008 1791 -4208 174 -209
303 -348 540 -582 1013 -1001 2262 -1701 3664 -2052 377 -94 921 -180 1355
-213 214 -16 906 -16 1120 0 434 33 978 119 1355 213 1244 312 2364 897 3330
1738 171 149 516 490 675 666 1146 1275 1843 2867 2004 4580 209 2213 -512
4402 -1995 6060 -156 174 -522 536 -689 681 -897 777 -1917 1333 -3030 1652
-520 150 -1098 253 -1630 292 -145 11 -793 21 -905 14z m5315 -4109 c50 -25
100 -84 100 -117 0 -10 5 -18 10 -18 6 0 10 -84 10 -233 0 -228 -1 -234 -25
-285 -14 -29 -49 -73 -82 -104 -224 -206 -383 -390 -541 -628 -68 -101 -242
-387 -242 -397 0 -3 -15 -31 -34 -62 -36 -59 -172 -328 -249 -491 -58 -124
-187 -416 -187 -424 0 -3 -9 -25 -19 -49 -47 -101 -217 -543 -292 -757 -106
-301 -237 -698 -284 -860 -39 -133 -126 -421 -139 -460 -8 -25 -27 -88 -42
-140 -27 -96 -31 -111 -57 -210 -9 -30 -29 -107 -46 -170 -59 -216 -92 -345
-106 -406 -8 -33 -25 -103 -39 -155 -14 -52 -42 -161 -61 -244 -20 -82 -47
-195 -60 -250 -52 -219 -65 -274 -89 -385 -13 -63 -27 -127 -31 -142 l-7 -28
1238 -2 c1192 -3 1240 -4 1274 -22 46 -25 90 -74 97 -108 3 -16 9 -28 14 -28
5 0 9 -97 9 -215 0 -137 -4 -215 -10 -215 -5 0 -10 -8 -10 -19 0 -34 -75 -107
-129 -125 -46 -15 -457 -16 -4953 -16 -4546 0 -4906 1 -4948 17 -55 20 -106
66 -122 110 -7 18 -16 33 -20 33 -4 0 -8 97 -8 215 0 124 4 215 9 215 5 0 12
13 16 29 7 32 54 85 99 109 28 16 130 17 1229 20 1167 2 1197 3 1197 21 0 27
-62 307 -135 611 -20 85 -43 182 -51 215 -7 33 -20 87 -29 120 -9 33 -38 146
-65 250 -79 310 -120 467 -134 515 -8 25 -21 70 -30 100 -8 30 -38 134 -65
230 -105 367 -153 523 -281 915 -167 511 -398 1127 -535 1430 -184 407 -288
618 -419 848 -118 208 -151 260 -285 454 -127 183 -234 311 -381 454 -61 61
-103 110 -111 133 -7 20 -17 36 -21 36 -4 0 -8 115 -8 255 0 140 4 255 8 255
5 0 14 18 21 40 20 66 125 130 193 116 89 -18 308 -178 487 -356 120 -120 140
-141 206 -225 22 -27 46 -57 54 -65 25 -26 174 -230 238 -325 73 -110 233
-376 303 -505 56 -103 310 -615 310 -625 0 -3 10 -27 21 -53 12 -26 35 -76 52
-112 16 -36 49 -114 74 -175 24 -60 50 -123 58 -140 7 -16 30 -73 50 -125 45
-117 97 -251 135 -350 16 -41 48 -129 71 -195 23 -66 68 -196 101 -290 56
-162 196 -589 224 -685 7 -25 27 -92 45 -150 17 -58 37 -125 44 -150 7 -25 38
-130 68 -235 30 -104 69 -244 87 -310 18 -66 45 -165 60 -220 25 -89 87 -333
104 -407 10 -42 22 -34 41 30 9 31 34 107 55 167 21 61 48 139 60 175 12 36
28 79 36 97 8 17 14 35 14 41 0 5 13 43 29 83 15 41 48 124 71 184 23 61 49
124 56 140 7 17 23 55 34 85 12 30 32 78 46 108 13 29 36 80 50 115 53 125
227 469 301 594 182 307 321 492 507 672 126 122 120 117 209 180 211 146 413
214 637 214 103 0 142 -5 223 -26 53 -15 117 -36 142 -47 24 -11 48 -20 53
-20 13 0 224 -141 264 -176 99 -86 234 -234 316 -344 50 -69 95 -129 100 -135
48 -65 198 -327 282 -495 169 -335 388 -905 545 -1415 20 -66 40 -124 45 -128
4 -5 15 22 24 60 8 37 30 120 47 183 17 63 37 138 44 165 24 89 54 198 79 285
13 47 37 132 54 190 106 379 311 1023 427 1345 17 50 49 137 69 195 42 116 44
123 151 400 42 107 83 211 91 230 9 19 20 46 26 60 6 14 14 32 18 41 4 8 21
49 38 90 16 41 43 103 60 139 16 36 53 117 82 180 59 132 204 424 256 520 20
36 49 88 64 116 128 235 420 672 527 789 10 11 50 59 90 106 127 151 339 341
484 435 185 121 231 133 319 89z"/>
<path d="M7961 8278 c-156 -44 -406 -313 -602 -648 -95 -162 -251 -469 -298
-588 -11 -26 -32 -76 -48 -112 -16 -36 -38 -85 -47 -110 -10 -25 -22 -54 -26
-65 -5 -11 -20 -50 -34 -87 -14 -38 -37 -96 -50 -130 -69 -181 -160 -444 -206
-593 -10 -33 -40 -132 -68 -220 -27 -88 -64 -212 -82 -275 -18 -63 -36 -126
-41 -140 -5 -14 -27 -97 -49 -185 -22 -88 -45 -173 -49 -190 -5 -16 -12 -42
-15 -57 l-6 -28 1635 0 c899 0 1635 2 1635 4 0 15 -109 471 -134 561 -8 28
-33 120 -56 205 -90 334 -263 891 -346 1110 -243 643 -461 1070 -677 1325 -95
112 -212 206 -280 226 -40 11 -112 10 -156 -3z"/>
</g>
</svg>
