<svg version="1.2" xmlns="http://www.w3.org/2000/svg" viewBox="0 0 1200 1080" width="1200" height="1080">
	<style>.s0 { stroke-width: 40; fill: none; }</style>
	<path stroke="currentColor" fill-rule="evenodd" class="s0" d="m761 879.1c0 0 28.9-137.4 76.9-234.6m253 231.7"/>
	<path stroke="currentColor" class="s0" d="m948 692c-85.7 0-155-69.3-155-155 0-85.7 69.3-155 155-155 85.7 0 155 69.3 155 155 0 85.7-69.3 155-155 155z"/>
	<path stroke="currentColor" class="s0" d="m308.7 879.7c0 0 94.7-450.4 234.6-450.4 131.8 0 216.9 446.4 216.9 446.4"/>
	<path stroke="currentColor" class="s0" d="m-467.2 879.7c0 0 163.2-775.5 404-775.5 226.9 0 373.4 768.7 373.4 768.7"/>
	<path stroke="currentColor" class="s0" d="m-29.7 881.4v-1h1138.7v1z"/>
</svg>
