<svg width="50" height="50" viewBox="0 0 50 50" fill="none" xmlns="http://www.w3.org/2000/svg">
  <path fill="currentColor" d="M40.6154 0.391113H9.14725C4.111 0.391113 0.166626 4.30424 0.166626 9.29986V27.1842C0.166626 32.1861 4.111 36.1049 9.14725 36.1049H13.0235C13.4024 36.1049 13.7658 35.9543 14.0338 35.6864C14.3017 35.4184 14.4523 35.055 14.4523 34.6761C14.4523 34.2972 14.3017 33.9338 14.0338 33.6658C13.7658 33.3979 13.4024 33.2474 13.0235 33.2474H9.14725C5.7135 33.2474 3.0235 30.5842 3.0235 27.1836V9.29986C3.0235 5.90611 5.7135 3.24799 9.14725 3.24799H40.6148C44.2435 3.24799 47.3091 6.01924 47.3091 9.29986V13.248C47.3091 13.6269 47.4597 13.9903 47.7276 14.2583C47.9955 14.5262 48.3589 14.6767 48.7379 14.6767C49.1168 14.6767 49.4802 14.5262 49.7482 14.2583C50.0161 13.9903 50.1666 13.6269 50.1666 13.248V9.29986C50.1666 4.47111 45.7923 0.391113 40.6154 0.391113Z"/>
  <path fill="currentColor" d="M23.1273 26.4273L30.5804 20.6167C31.3892 20.0155 31.8723 19.0717 31.8723 18.0917C31.8723 17.203 31.4679 16.3917 30.7742 15.8767L23.101 10.0367C22.5842 9.65234 21.9998 9.44922 21.411 9.44922C19.9123 9.44922 18.7379 10.7511 18.7379 12.4117V24.0717C18.7379 25.7323 19.9117 27.0342 21.411 27.0342C21.9998 27.0342 22.5842 26.8311 23.1273 26.4273ZM21.5954 12.4811L29.0148 18.088C29.0192 18.1242 28.9848 18.2442 28.8504 18.3442L21.596 23.9923L21.5954 12.4811ZM44.516 36.2517C47.3923 36.2517 49.7323 33.9117 49.7323 31.0348C49.7323 28.158 47.3923 25.818 44.516 25.818C41.6398 25.818 39.2998 28.158 39.2998 31.0348C39.2998 31.3111 39.3398 31.5767 39.3817 31.8417L31.801 36.413L23.2273 31.2436C23.0667 31.1467 22.8885 31.0824 22.7031 31.0544C22.5176 31.0263 22.3284 31.0351 22.1463 31.0801C21.9642 31.1252 21.7928 31.2057 21.6418 31.317C21.4908 31.4283 21.3632 31.5683 21.2664 31.7289C21.1695 31.8895 21.1052 32.0677 21.0771 32.2531C21.0491 32.4386 21.0578 32.6278 21.1029 32.8099C21.1479 32.992 21.2284 33.1634 21.3398 33.3144C21.4511 33.4654 21.591 33.593 21.7517 33.6898L29.0348 38.0817L21.7517 42.4736C21.588 42.569 21.445 42.696 21.3309 42.8473C21.2168 42.9985 21.1339 43.1709 21.087 43.3544C21.0402 43.538 21.0303 43.729 21.0579 43.9164C21.0856 44.1038 21.1502 44.2839 21.2481 44.4461C21.346 44.6082 21.4751 44.7494 21.6281 44.8612C21.781 44.973 21.9546 45.0533 22.1388 45.0974C22.3231 45.1414 22.5142 45.1485 22.7012 45.118C22.8882 45.0875 23.0672 45.0202 23.2279 44.9198L31.8017 39.7505L39.3354 44.293C39.3279 44.4086 39.3004 44.5192 39.3004 44.6361C39.3004 47.513 41.6404 49.853 44.5167 49.853C47.3929 49.853 49.7329 47.513 49.7329 44.6361C49.7329 41.7598 47.3929 39.4198 44.5167 39.4198C42.7967 39.4198 41.2804 40.2673 40.3298 41.5555L34.5685 38.0817L40.601 34.4442C41.5567 35.5417 42.9485 36.2517 44.516 36.2517ZM44.516 28.6748C45.8167 28.6748 46.8754 29.7336 46.8754 31.0348C46.8754 32.3361 45.8173 33.3948 44.516 33.3948C43.2154 33.3948 42.1567 32.3361 42.1567 31.0348C42.1567 29.7336 43.2148 28.6748 44.516 28.6748ZM44.516 42.2767C45.8167 42.2767 46.8754 43.3348 46.8754 44.6361C46.8754 45.9373 45.8173 46.9961 44.516 46.9961C43.2154 46.9961 42.1567 45.9373 42.1567 44.6361C42.1567 43.3348 43.2148 42.2767 44.516 42.2767Z"/>
</svg>
